<svg xmlns="http://www.w3.org/2000/svg" viewBox="0 0 59.25 54.75" width="59.25" height="54.75">
  <path d="M 38.25 41.48 L 45.37 48.75 L 52.5 41.54 L 52.5 37.49 L 47.25 42.74 L 47.25 33 L 43.5 33 L 43.5 42.73 L 38.25 37.51 Z M 31.51 41.27 C 31.51 32.35 38.37 27 45.41 27 C 52.92 27 59.25 33.11 59.25 40.84 C 59.25 48.71 52.8 54.75 45.53 54.75 C 37.07 54.75 31.51 47.7 31.51 41.27 Z M 9 3.75 L 6.75 3.75 L 6.75 0 L 45.75 0 L 45.75 3.74 L 43.5 3.74 L 43.5 2.25 L 9 2.25 Z M 36 17.99 L 35.99 11.25 L 42 11.25 L 42 17.99 Z M 12.75 23.99 L 12.75 21.75 L 28.49 21.75 L 28.49 23.99 Z M 12.75 29.24 L 12.75 27 L 33 27 L 33 29.24 Z M 0 48.74 L 0 33.75 L 3.76 18.08 L 5.25 18.08 L 5.25 6 L 47.25 6 L 47.25 18.08 L 48.75 18.08 L 50.54 25.57 C 48.76 25.01 46.92 24.7 45 24.75 L 45 8.24 L 7.5 8.24 L 7.5 33.74 L 30.89 33.74 C 28.17 39.46 29.17 44.92 31.27 48.74 Z" fill="#334155" stroke="#0f172a" stroke-width="1.5" />
</svg>